# xmcd
#
# Track frame offsets:
#	150
#	29195
#	59895
#	71509
#	82131
#	101629
#	115899
#	126955
#	141465
#	151656
#	164415
#	192238
#
# Disc length: 2746 seconds
#
# Revision: 1
# Processed by: cddbd v1.4PL0 Copyright (c) Steve Scherf et al.
# Submitted via: audiograbber 1.80
#
DISCID=b80ab80c
DTITLE=Ray Charles - The Best Of Ray Charles
DYEAR=1900
DGENRE=
TTITLE0=What'D I Say
TTITLE1=Georgia On My Mind
TTITLE2=Tell Me Baby
TTITLE3=Sittin' On Top Of The World
TTITLE4=Talkin' Bout You
TTITLE5=Kiss Me Baby
TTITLE6=Sentimental Blues
TTITLE7=Blues Is My Middle Name
TTITLE8=I'm Movin' On
TTITLE9=HeartBreaker
TTITLE10=I Got A Woman
TTITLE11=I'm Going Down The River
EXTD=
EXTT0=
EXTT1=
EXTT2=
EXTT3=
EXTT4=
EXTT5=
EXTT6=
EXTT7=
EXTT8=
EXTT9=
EXTT10=
EXTT11=
PLAYORDER=
